
<svg width="98" height="48" viewBox="0 0 98 48" fill="none" xmlns="http://www.w3.org/2000/svg">
<path d="M6.35372 13.7977C6.32887 7.37773 10.5204 3.81873 18.2242 3.79032C23.7577 3.77003 24.7435 7.30468 24.7518 8.61141C24.7518 11.0828 21.1815 13.7044 21.1815 13.7044C21.1815 13.7044 21.3803 15.2424 24.4411 15.2343C27.502 15.2262 30.4882 13.2418 30.4717 8.27864C30.451 2.58099 24.3624 0 18.3402 0C13.3037 0 -0.0495637 0.710178 0.000138371 13.7044C0.0415568 25.2499 22.2543 26.2644 22.2832 33.6543C22.3122 41.6813 13.1215 43.8403 10.0234 43.8525C6.9253 43.8646 5.65375 41.6854 5.64547 40.4923C5.62476 33.9992 12.2227 32.1812 12.2227 32.1812C12.2117 31.8168 12.1262 31.4582 11.9711 31.1267C11.816 30.7953 11.5946 30.4978 11.32 30.2518C11.0453 30.0057 10.723 29.8163 10.3723 29.6946C10.0215 29.5729 9.64931 29.5215 9.27786 29.5434C2.69648 29.5677 0.0746915 35.1193 0.0954007 40.5369C0.0954007 45.1429 3.43372 48.0202 8.45364 47.9999C18.0461 47.9674 28.8646 43.3777 28.8274 33.1876C28.7901 23.655 6.38272 21.1674 6.35372 13.7977Z" fill="url(#paint0_linear_141_551)"/>
<path d="M97.8194 39.3316C97.7449 39.149 97.5295 39.1937 97.2437 39.425C96.1585 40.3056 93.6693 42.7973 87.8376 42.8217C77.222 42.8582 75.3831 25.7043 75.3831 25.7043C75.3831 25.7043 83.4762 19.7794 84.7395 17.3932C86.0027 15.007 81.981 14.4754 81.981 14.4754C81.981 14.4754 76.315 21.2241 72.3015 23.2086C72.7157 20.2745 75.6978 13.5826 75.8801 9.73143C76.0623 5.88024 71.1542 6.82173 70.3714 7.19102C70.3714 8.8711 66.0432 24.1298 64.4652 32.5139C63.5374 33.9668 62.212 35.6347 61.0274 35.6387C60.3399 35.6387 60.0872 34.3888 60.079 32.5992C60.079 30.1156 61.4748 26.1345 61.4623 23.7158C61.4623 22.0439 60.6795 21.9424 60.0044 21.9465L58.8985 21.9668C57.1714 21.9668 57.7347 20.5221 56.1815 20.5261C51.4101 20.5464 45.334 25.6475 45.0689 33.354C43.4619 34.401 41.2087 35.7118 40.0573 35.7118C38.9059 35.7118 38.5497 34.6201 38.5455 33.6827C38.5455 32.0188 41.2874 22.1494 41.2874 22.1494C41.2874 22.1494 44.779 21.2728 46.3032 20.9847C47.4546 20.7615 47.7777 20.6803 48.2333 20.1325C48.6889 19.5846 49.5587 18.4605 50.2669 17.446C50.9752 16.4315 50.2669 15.6523 48.9705 15.6563C47.2517 15.6563 42.6584 16.7236 42.6584 16.7236C42.6584 16.7236 44.866 7.38987 44.8618 7.2032C44.8577 7.01652 44.605 6.91913 44.2406 6.91913C43.4122 6.91913 41.9128 7.36146 40.9602 7.69423C39.4981 8.20556 38.3053 9.96274 38.0609 10.7825C37.8166 11.6022 36.1722 17.9979 36.1722 17.9979C36.1722 17.9979 27.3377 20.9928 26.0951 21.4433C26.0591 21.4558 26.0278 21.4788 26.0056 21.5093C25.9834 21.5398 25.9713 21.5763 25.9709 21.6137C25.9709 21.6868 26.9856 25.4852 29.0607 25.4771C30.5559 25.4771 34.9048 23.728 34.9048 23.728C34.9048 23.728 32.6848 32.4652 32.6931 35.3709C32.6931 37.2376 33.5919 39.429 37.3154 39.429C40.7863 39.429 43.8098 37.6759 45.5038 36.4544C45.8783 37.3426 46.521 38.0973 47.3457 38.6174C48.1704 39.1374 49.1377 39.398 50.1178 39.3641C53.4727 39.3641 56.0655 36.7385 56.3886 36.3895C56.8028 37.3959 57.8506 39.3357 60.1949 39.3276C61.5203 39.3276 62.8954 37.8585 63.9226 36.4585C63.8967 36.7515 63.8967 37.0461 63.9226 37.3391C64.3368 40.959 69.8081 38.8325 70.1022 38.3252C70.2845 35.7118 70.1685 30.3591 71.2371 27.0557C72.6494 38.3252 78.0173 45.9059 87.6719 45.8693C93.0563 45.849 95.8272 44.3313 96.9828 43.0773C97.4429 42.5783 97.7621 41.9703 97.9088 41.3134C98.0556 40.6564 98.0247 39.9733 97.8194 39.3316ZM51.5136 35.6184C46.8789 35.6184 52.9301 23.8498 56.898 23.8498C56.8897 25.3635 56.8028 35.5981 51.5136 35.6184Z" fill="url(#paint1_linear_141_551)"/>
<path d="M89.1328 39.2261C93.3161 39.2261 96.5592 36.5153 97.1514 35.6347C97.9177 34.4903 96.2609 32.7655 95.7308 32.794C94.4137 34.0317 93.0303 35.5292 89.9322 35.5413C86.2791 35.5413 87.1075 31.6171 87.1075 31.6171C87.1075 31.6171 94.1486 32.5099 96.9526 27.5589C97.8556 25.9762 97.8928 23.7848 97.5284 22.8433C97.1639 21.9019 95.1261 20.1528 91.8706 20.4085C87.8779 20.7372 82.8455 24.8197 81.7396 29.7422C80.8533 33.6827 82.5307 39.2505 89.1328 39.2261ZM93.606 22.7257C94.2646 22.7054 94.2066 23.7645 94.0202 24.8765C93.7758 26.378 91.6594 30.1886 87.6335 30.0303C87.9068 27.8187 90.9014 22.8028 93.606 22.7257Z" fill="url(#paint2_linear_141_551)"/>
<defs>
<linearGradient id="paint0_linear_141_551" x1="48.8016" y1="0" x2="48.8016" y2="48" gradientUnits="userSpaceOnUse">
<stop stop-color="white"/>
<stop offset="1" stop-color="#A8A6AF"/>
</linearGradient>
<linearGradient id="paint1_linear_141_551" x1="48.8016" y1="0" x2="48.8016" y2="48" gradientUnits="userSpaceOnUse">
<stop stop-color="white"/>
<stop offset="1" stop-color="#A8A6AF"/>
</linearGradient>
<linearGradient id="paint2_linear_141_551" x1="48.8016" y1="0" x2="48.8016" y2="48" gradientUnits="userSpaceOnUse">
<stop stop-color="white"/>
<stop offset="1" stop-color="#A8A6AF"/>
</linearGradient>
</defs>
</svg>
